# xmcd
#
# Track frame offsets: 
#        150
#        15795
#        30735
#        45627
#        56010
#        70947
#        87007
#        102432
#        124607
#        138150
#        156085
#        170565
#        183912
#        195345
#        217847
#        232759
#
# Disc length: 3299 seconds
#
# Revision: 0
# Processed by: cddbd v1.4PL0 Copyright (c) Steve Scherf et al.
# Submitted via: ExactAudioCopy v0.95a3
#
DISCID=c00ce110
DTITLE=Brian McCarty - Falls From Grace
DYEAR=1998
DGENRE=Folk/Rock
TTITLE0=Angel On A String
TTITLE1=Pearl In The Shell
TTITLE2=Lyin' In Bed
TTITLE3=Dotted Line
TTITLE4=Embarassed For You
TTITLE5=Nicole
TTITLE6=Monster In The Mirror
TTITLE7=The Boy Who Cried Martyr
TTITLE8=Before Dawn Explodes
TTITLE9=New Opiate
TTITLE10=Big Gaping Hole
TTITLE11=Plucked Angel
TTITLE12=For Your Own Good
TTITLE13=Buried Treasure
TTITLE14=Self-Fulfilling Prophet
TTITLE15=Two Faces
EXTD=
EXTT0=
EXTT1=
EXTT2=
EXTT3=
EXTT4=
EXTT5=
EXTT6=
EXTT7=
EXTT8=
EXTT9=
EXTT10=
EXTT11=
EXTT12=
EXTT13=
EXTT14=
EXTT15=
PLAYORDER=
